<?xml version="1.0" standalone="no"?>
<!DOCTYPE svg PUBLIC "-//W3C//DTD SVG 20010904//EN" "http://www.w3.org/TR/2001/REC-SVG-20010904/DTD/svg10.dtd">
<svg version="1.0" xmlns="http://www.w3.org/2000/svg" width="500.000000pt" height="500.000000pt" viewBox="0 0 500.000000 500.000000" preserveAspectRatio="xMidYMid meet">

    <g transform="translate(0.000000,500.000000) scale(0.100000,-0.100000)" fill="#000000" stroke="none">
        <path d="M4457 3398 c-2 -8 11 -17 32 -23 25 -7 37 -17 39 -32 3 -22 3 -22
-37 -6 -37 14 -42 14 -66 -1 -33 -22 -33 -58 1 -85 15 -12 34 -21 43 -21 10 0
22 -5 28 -11 8 -8 16 -8 30 0 10 6 15 11 10 11 -4 0 2 18 13 40 28 55 26 94
-6 119 -29 23 -80 28 -87 9z m47 -97 c9 -13 -4 -41 -18 -41 -21 0 -49 26 -42
38 9 14 52 16 60 3z" />
        <path d="M4707 3362 c-27 -5 -19 -48 8 -44 26 5 27 6 18 28 -5 12 -15 18 -26
16z" />
        <path d="M4593 3247 c-46 -55 -50 -64 -37 -77 14 -13 20 -10 55 30 56 63 72
88 64 100 -12 20 -31 8 -82 -53z" />
        <path d="M730 3172 c-45 -5 -81 -25 -90 -46 -14 -38 -21 -309 -12 -462 11
-170 25 -213 87 -260 45 -34 118 -43 162 -20 37 19 40 36 48 301 10 290 -10
408 -76 458 -29 21 -82 34 -119 29z" />
        <path d="M2254 3170 c-94 -17 -99 -21 -133 -109 -43 -112 -109 -340 -126 -436
-21 -122 2 -208 64 -239 45 -23 78 -26 130 -15 49 10 50 11 69 67 l19 57 76 3
76 3 15 -33 c31 -68 73 -98 138 -98 58 0 95 13 131 48 35 34 35 52 -9 219 -54
209 -111 376 -147 430 -56 84 -176 125 -303 103z m125 -349 c12 -49 21 -91 21
-95 0 -3 -20 -6 -45 -6 -50 0 -53 6 -36 70 6 19 15 54 21 78 6 23 12 42 15 42
2 0 13 -40 24 -89z" />
        <path d="M1175 3161 c-59 -14 -73 -28 -84 -83 -5 -29 -29 -156 -51 -283 -57
-316 -51 -371 45 -419 34 -17 45 -18 94 -8 30 7 59 16 64 21 6 6 15 83 21 173
7 90 14 154 18 143 3 -11 18 -72 33 -135 31 -130 42 -153 86 -176 36 -18 121
-21 160 -6 25 10 30 23 65 174 l39 163 6 -130 c6 -142 16 -175 62 -209 57 -42
164 -23 201 36 13 21 -49 567 -71 618 -38 93 -134 138 -233 110 -19 -6 -42
-14 -50 -19 -8 -6 -33 -86 -60 -198 l-47 -188 -37 154 c-20 85 -46 170 -57
188 -35 56 -132 91 -204 74z" />
        <path d="M3055 3147 c-115 -44 -187 -107 -234 -207 -23 -50 -26 -67 -26 -175
0 -109 2 -125 27 -177 72 -155 213 -229 406 -215 102 7 162 30 221 83 80 72
119 195 84 264 -33 63 -148 100 -216 69 -20 -9 -26 -21 -30 -63 -11 -89 -76
-121 -148 -73 -27 18 -37 34 -47 75 -17 70 -3 123 41 156 47 35 73 40 139 26
45 -10 68 -10 97 -1 73 21 125 112 102 173 -7 18 -28 33 -78 53 -57 24 -85 29
-173 32 -90 3 -113 0 -165 -20z" />
        <path d="M3663 3163 c-22 -3 -33 -11 -36 -26 -12 -48 -19 -514 -9 -591 11 -87
29 -119 83 -151 30 -18 52 -20 199 -20 146 1 170 3 212 22 73 33 101 112 69
191 l-13 32 -140 0 c-139 0 -139 0 -136 23 3 21 9 22 99 27 113 6 150 26 163
91 5 26 -7 95 -19 107 -4 4 -59 9 -123 12 -101 4 -117 7 -120 23 -3 15 6 17
90 17 114 0 156 11 193 50 26 27 30 40 33 98 1 37 -1 73 -7 81 -8 12 -55 15
-258 17 -136 1 -262 0 -280 -3z" />
        <path d="M220 2637 c-89 -29 -160 -150 -160 -276 0 -159 53 -233 232 -320 160
-79 365 -124 633 -140 163 -9 511 1 646 19 187 25 404 62 579 100 314 67 358
73 525 67 157 -5 204 -13 655 -116 365 -83 383 -86 705 -86 247 0 302 3 370
18 191 44 374 173 448 314 39 76 87 219 87 261 0 37 -26 71 -65 88 -72 30
-124 -14 -155 -130 -38 -138 -99 -215 -220 -276 -115 -58 -188 -70 -427 -70
-309 0 -370 8 -793 101 -509 113 -612 124 -851 95 -64 -8 -183 -30 -265 -50
-478 -112 -1010 -160 -1344 -122 -158 19 -217 31 -357 77 -107 35 -163 72
-187 124 -18 36 -17 38 2 64 21 28 56 32 134 16 34 -7 41 -4 73 28 67 67 37
143 -80 198 -64 31 -122 36 -185 16z" />
    </g>
</svg>